<?xml version="1.0" standalone="no"?>
<!DOCTYPE svg PUBLIC "-//W3C//DTD SVG 20010904//EN"
 "http://www.w3.org/TR/2001/REC-SVG-20010904/DTD/svg10.dtd">
<svg version="1.0" xmlns="http://www.w3.org/2000/svg"
 width="2000.000000pt" height="2000.000000pt" viewBox="0 0 2000.000000 2000.000000"
 preserveAspectRatio="xMidYMid meet">
<metadata>
Created by potrace 1.11, written by Peter Selinger 2001-2013
</metadata>
<g transform="translate(0.000000,2000.000000) scale(0.100000,-0.100000)"
fill="#000000" stroke="none">
<path d="M9947 18113 c-45 -99 -107 -232 -160 -348 -22 -49 -47 -97 -54 -106
-7 -8 -13 -20 -13 -25 0 -6 -22 -56 -50 -111 -27 -56 -50 -106 -50 -112 0 -6
-4 -11 -10 -11 -6 0 -9 -3 -8 -7 4 -12 -373 -774 -392 -793 -3 -3 -30 -54 -60
-115 -30 -60 -69 -136 -87 -167 -17 -32 -29 -58 -26 -58 3 0 1 -6 -5 -12 -5
-7 -33 -58 -62 -113 -84 -161 -100 -195 -98 -199 2 -2 -4 -12 -13 -22 -9 -11
-33 -55 -55 -99 -21 -44 -49 -97 -61 -117 -13 -21 -21 -38 -17 -38 3 0 -3 -15
-14 -32 -11 -18 -67 -125 -125 -238 -57 -113 -124 -241 -147 -285 -179 -339
-530 -1040 -530 -1060 0 -2 -16 -38 -36 -81 -48 -105 -156 -379 -168 -429 -2
-5 -6 -17 -9 -25 -4 -8 -14 -42 -23 -75 -8 -33 -20 -76 -25 -95 -5 -19 -12
-46 -15 -60 -3 -14 -16 -79 -30 -145 -14 -66 -27 -138 -30 -160 -3 -22 -7 -56
-10 -75 -43 -303 -34 -671 22 -945 20 -101 23 -114 40 -175 8 -30 17 -66 20
-80 2 -14 9 -34 14 -45 5 -11 22 -58 39 -105 39 -107 96 -239 110 -253 6 -6
11 -16 11 -21 0 -13 91 -193 148 -294 23 -41 42 -75 42 -77 0 -2 14 -28 31
-57 86 -145 147 -259 307 -578 148 -295 233 -477 342 -730 18 -41 38 -88 46
-104 8 -16 14 -33 14 -38 0 -4 9 -27 19 -51 26 -56 105 -259 142 -366 50 -139
109 -315 114 -335 2 -10 11 -37 19 -60 23 -68 41 -131 37 -131 -3 0 1 -9 7
-21 6 -11 13 -32 16 -45 2 -13 14 -53 25 -89 11 -36 22 -75 24 -85 1 -11 5
-24 8 -30 4 -5 10 -28 14 -50 5 -22 9 -44 11 -50 1 -5 14 -62 29 -125 33 -143
36 -153 39 -165 1 -5 7 -32 11 -60 10 -56 12 -64 14 -67 2 -2 4 -15 6 -30 2
-15 13 -74 24 -130 11 -57 22 -116 24 -133 3 -16 8 -46 11 -65 4 -19 9 -55 12
-80 2 -25 6 -56 9 -70 7 -48 19 -151 30 -255 4 -38 11 -92 15 -118 4 -29 3
-50 -3 -54 -5 -3 -32 -7 -59 -8 -57 -1 -78 13 -78 53 0 15 -12 104 -26 197
-13 94 -27 184 -29 200 -4 25 -16 98 -20 115 0 3 -4 26 -8 51 -9 54 -15 85
-22 119 -4 14 -8 36 -11 50 -11 58 -77 331 -95 395 -11 39 -22 77 -24 85 -2 8
-10 34 -19 58 -8 23 -16 44 -16 47 -3 19 -120 344 -163 450 -55 137 -190 425
-237 505 -5 8 -43 74 -85 145 -42 72 -81 139 -88 150 -26 42 -195 294 -206
307 -6 7 -25 31 -42 53 -16 22 -37 49 -47 60 -9 11 -39 47 -66 80 -27 33 -57
69 -67 80 -52 58 -392 397 -439 438 -30 27 -66 59 -80 71 -116 103 -437 332
-585 417 -112 64 -240 129 -370 188 -38 18 -79 37 -90 42 -12 6 -27 11 -35 13
-8 1 -26 7 -40 13 -14 6 -45 19 -70 28 -25 10 -58 23 -75 30 -26 11 -191 68
-205 70 -3 1 -30 9 -61 19 -31 9 -65 19 -75 21 -11 2 -46 12 -79 21 -33 9 -67
17 -75 19 -8 2 -69 14 -135 28 -115 24 -164 33 -230 42 -16 2 -50 7 -75 10
-168 24 -262 29 -480 29 -182 0 -295 -5 -430 -19 -141 -14 -402 -66 -472 -94
-16 -6 -28 -9 -28 -7 0 4 -173 -56 -245 -84 -16 -6 -31 -11 -32 -11 -3 0 -236
-119 -267 -136 -25 -15 -27 -16 -135 -88 -93 -62 -260 -193 -303 -237 -15 -15
-29 -28 -32 -28 -11 0 -217 -215 -286 -299 -19 -24 -42 -51 -50 -60 -31 -35
-70 -90 -70 -99 0 -6 -3 -12 -7 -14 -14 -5 -95 -130 -156 -238 -44 -78 -137
-270 -137 -282 0 -8 -4 -18 -8 -23 -8 -9 -54 -127 -58 -150 -1 -5 -10 -30 -19
-55 -9 -25 -27 -87 -41 -139 -24 -88 -30 -119 -39 -181 -2 -14 -4 -25 -5 -25
-2 0 -4 -11 -5 -25 -2 -14 -6 -43 -9 -65 -15 -88 -23 -419 -12 -500 2 -16 7
-54 10 -82 6 -58 10 -83 26 -158 6 -27 13 -61 15 -75 20 -92 87 -287 141 -405
15 -33 28 -62 29 -65 1 -6 31 -62 58 -109 11 -20 29 -53 40 -73 12 -21 24 -38
29 -38 4 0 8 -6 8 -12 0 -7 27 -48 58 -90 90 -120 178 -215 351 -378 9 -9 50
-42 91 -75 41 -33 77 -62 80 -65 3 -3 12 -9 21 -15 9 -5 68 -44 130 -86 248
-166 485 -277 859 -404 85 -29 162 -55 170 -58 8 -3 29 -9 45 -13 17 -4 32 -8
35 -9 3 0 38 -12 77 -25 40 -13 75 -21 79 -17 4 3 -4 28 -16 54 -33 70 -54
117 -54 125 -1 3 -4 10 -8 14 -5 4 -8 13 -8 20 0 7 -5 25 -12 41 -6 15 -12 33
-14 38 -1 6 -12 43 -23 83 -12 40 -23 87 -26 105 -3 17 -9 57 -14 87 -5 30 -7
120 -4 200 5 186 6 200 13 200 3 0 6 16 7 36 2 35 38 205 50 234 3 8 7 21 9
27 16 78 120 300 203 434 81 131 252 318 356 390 27 19 59 42 70 52 11 11 29
23 40 28 11 5 34 18 50 29 17 11 37 22 45 26 8 3 32 15 53 26 20 10 37 16 37
12 0 -3 6 -1 13 5 12 10 78 36 117 47 194 52 288 64 510 64 230 -1 355 -23
595 -107 55 -19 105 -36 110 -37 6 -2 17 -6 25 -9 8 -3 45 -18 83 -31 37 -14
82 -32 100 -39 17 -8 50 -22 72 -32 192 -83 493 -255 630 -362 17 -12 41 -31
53 -40 13 -10 36 -28 50 -40 15 -13 32 -26 37 -30 70 -53 184 -163 272 -259
37 -42 79 -88 93 -103 14 -14 37 -42 51 -61 15 -19 35 -45 45 -57 38 -44 50
-60 110 -148 75 -111 170 -284 214 -390 46 -113 47 -116 65 -159 8 -21 15 -42
15 -46 0 -7 -52 -10 -345 -16 -197 -3 -224 -6 -304 -34 -111 -37 -202 -89
-262 -149 -47 -47 -97 -121 -105 -153 -1 -5 -2 -9 -3 -10 -8 -11 -15 -65 -15
-128 0 -182 127 -319 373 -400 35 -12 70 -19 77 -16 8 3 14 2 14 -2 0 -12 25
-13 353 -15 240 -2 297 -5 297 -15 0 -59 -74 -275 -133 -384 -17 -33 -36 -69
-42 -79 -5 -11 -13 -19 -17 -19 -5 0 -8 -7 -8 -15 0 -8 -4 -15 -8 -15 -4 0
-15 -13 -24 -28 -24 -41 -140 -156 -206 -204 -197 -145 -454 -210 -691 -173
-122 18 -295 84 -381 145 -162 114 -291 327 -317 524 -8 61 -9 224 0 286 23
181 111 412 236 624 28 48 47 86 43 86 -4 1 -25 4 -47 8 -93 15 -471 6 -545
-13 -8 -2 -31 -7 -50 -10 -197 -33 -465 -154 -630 -284 -89 -71 -250 -244
-250 -269 0 -6 -4 -12 -9 -14 -18 -6 -107 -171 -148 -273 -59 -148 -75 -209
-103 -405 -20 -145 -5 -424 32 -565 5 -22 12 -49 15 -60 5 -24 8 -35 15 -55 3
-8 14 -37 23 -65 45 -126 157 -326 243 -430 33 -41 123 -135 158 -165 67 -58
216 -160 233 -160 5 0 14 -6 20 -14 27 -32 331 -180 416 -203 6 -1 56 -16 111
-32 56 -16 119 -32 139 -35 21 -4 47 -8 59 -11 20 -4 54 -10 136 -21 171 -25
586 -19 805 11 28 4 53 9 56 11 7 4 69 16 87 17 6 0 12 4 12 9 0 5 4 7 9 4 5
-3 42 6 82 20 41 14 81 27 89 29 61 13 384 155 400 176 3 3 19 14 37 23 158
81 400 300 554 501 182 237 324 548 385 840 2 11 6 31 9 45 12 56 17 80 35
180 10 58 21 130 25 160 6 56 11 101 20 168 2 20 7 59 10 87 3 27 10 52 15 55
5 3 37 5 72 4 88 -2 88 -3 83 -16 -3 -7 -7 -56 -10 -108 -12 -214 -24 -408
-30 -485 -5 -66 -11 -150 -20 -295 -13 -211 -9 -196 -83 -270 -91 -89 -132
-137 -125 -144 4 -3 2 -6 -4 -6 -15 0 -105 -143 -161 -254 -25 -50 -45 -92
-44 -94 1 -1 -5 -17 -14 -34 -17 -33 -62 -155 -115 -313 -76 -223 -166 -424
-241 -533 -48 -71 -196 -210 -249 -236 -11 -5 -19 -15 -19 -23 0 -11 24 -14
128 -12 145 2 220 9 347 35 52 10 55 11 58 14 1 1 10 3 19 5 25 5 119 35 148
47 14 6 36 15 50 20 14 6 32 14 40 19 8 5 24 13 35 18 11 5 37 26 58 46 21 20
41 34 44 32 3 -3 6 -27 8 -54 4 -51 4 -55 29 -151 38 -145 122 -333 217 -489
24 -39 64 -105 88 -145 24 -40 47 -75 50 -78 3 -3 11 -14 18 -25 7 -11 43 -72
81 -135 89 -146 118 -203 166 -318 35 -84 41 -92 66 -92 23 0 30 8 50 53 91
206 154 319 313 565 37 56 67 107 67 112 0 6 4 10 9 10 5 0 11 8 15 17 3 10
17 36 31 58 40 64 141 275 163 340 36 105 63 213 69 272 3 32 7 60 9 62 2 2
12 -5 21 -15 22 -24 95 -81 106 -83 4 0 24 -8 45 -17 61 -26 202 -73 202 -67
0 3 7 0 15 -7 8 -7 15 -10 15 -7 0 3 15 1 33 -4 17 -5 55 -12 82 -15 28 -3 64
-9 80 -13 51 -13 335 -14 335 -2 0 6 -4 11 -8 11 -5 0 -17 8 -28 18 -10 9 -35
29 -54 43 -62 47 -147 135 -190 199 -51 75 -125 224 -169 340 -18 47 -37 93
-42 103 -5 10 -7 22 -4 27 4 6 1 10 -4 10 -6 0 -11 7 -11 16 0 16 -71 225 -95
279 -8 17 -26 59 -40 95 -45 108 -151 300 -167 300 -5 0 -8 5 -8 12 0 15 -87
117 -168 196 -65 64 -65 64 -67 125 -2 34 -6 103 -9 152 -3 50 -8 126 -11 170
-3 44 -7 114 -10 155 -7 111 -14 217 -20 290 -13 179 -16 270 -8 271 4 1 41 2
81 3 58 1 72 -1 73 -14 1 -8 3 -24 5 -35 2 -11 5 -42 8 -70 3 -27 7 -68 10
-90 3 -22 8 -65 12 -95 5 -52 28 -200 39 -247 5 -23 9 -43 20 -93 17 -79 17
-80 35 -150 15 -63 13 -56 44 -150 15 -47 32 -89 37 -95 5 -5 9 -15 9 -22 0
-33 169 -353 191 -361 5 -2 9 -8 9 -13 0 -9 36 -66 50 -79 3 -3 21 -25 40 -50
131 -169 326 -348 490 -449 88 -55 95 -58 101 -57 4 1 15 -6 25 -15 22 -19
150 -80 214 -102 25 -9 62 -23 83 -31 20 -9 37 -13 37 -10 0 4 6 2 13 -4 13
-11 194 -68 240 -76 15 -3 35 -7 45 -10 17 -5 88 -15 152 -22 188 -21 567 -20
715 1 17 2 50 7 75 10 153 21 396 92 535 156 39 18 73 32 77 31 3 -1 12 5 18
13 7 8 16 15 21 15 12 0 183 102 187 112 2 4 8 6 13 2 5 -3 9 -1 9 5 0 5 9 13
20 16 11 3 26 12 32 18 7 7 38 30 68 53 149 111 301 302 395 496 64 131 125
333 143 473 14 104 11 381 -4 477 -15 86 -49 228 -63 263 -5 11 -21 52 -37 90
-65 163 -158 307 -279 430 -98 100 -230 206 -244 196 -2 -1 -7 1 -10 6 -13 20
-211 113 -311 146 -112 38 -133 44 -240 61 -14 3 -25 5 -25 6 0 12 -380 19
-512 9 -29 -2 -53 -7 -53 -12 0 -4 26 -54 58 -110 62 -110 102 -191 102 -207
0 -5 4 -10 8 -10 4 0 13 -17 19 -38 6 -20 21 -63 32 -94 12 -32 22 -65 24 -75
1 -10 5 -23 9 -28 3 -6 9 -28 12 -50 4 -22 10 -64 15 -93 7 -48 6 -244 -2
-302 -11 -78 -58 -208 -99 -275 -32 -51 -98 -142 -98 -133 0 2 -25 -19 -55
-49 -31 -29 -60 -53 -65 -53 -5 0 -15 -6 -22 -13 -18 -17 -91 -55 -153 -78
-170 -63 -365 -79 -535 -44 -14 3 -34 7 -45 9 -38 8 -154 55 -204 83 -149 83
-290 218 -379 363 -73 120 -161 351 -166 440 l-1 24 295 2 c162 2 304 5 315 7
11 2 44 8 73 12 28 4 52 11 52 14 0 4 9 7 20 8 34 3 163 69 209 107 24 20 57
53 72 74 16 20 33 42 38 48 11 14 40 131 41 169 1 27 -4 66 -12 105 -20 89
-138 223 -240 273 -79 39 -182 76 -230 83 -36 5 -375 14 -522 14 -32 0 -37 3
-31 18 4 9 8 24 10 32 5 26 108 265 116 270 4 3 10 17 14 32 4 15 13 32 21 39
8 6 11 15 8 20 -3 5 0 9 5 9 6 0 11 5 11 10 0 6 12 29 27 53 14 23 27 44 27
47 0 3 7 13 16 23 9 9 23 30 31 45 8 15 24 38 37 52 12 14 22 28 22 32 0 4 11
20 24 35 14 16 51 60 82 98 32 39 63 75 69 81 5 6 39 44 75 84 36 40 71 77 78
84 6 6 36 34 65 61 63 59 127 112 211 177 33 26 70 54 81 63 31 24 152 102
230 148 39 23 72 45 73 49 2 5 12 8 22 8 10 0 20 3 22 8 8 18 428 207 508 228
14 4 159 55 190 67 14 6 123 38 145 43 95 22 167 35 222 39 118 10 385 5 453
-9 14 -3 42 -7 63 -10 21 -4 71 -15 110 -26 65 -17 88 -24 150 -46 11 -4 53
-24 95 -44 188 -92 353 -227 514 -420 20 -25 82 -117 104 -155 52 -91 98 -184
129 -258 39 -95 102 -313 109 -380 3 -23 7 -58 10 -77 15 -100 21 -283 11
-345 -3 -16 -7 -50 -9 -75 -3 -25 -10 -59 -16 -75 -6 -17 -11 -31 -11 -33 3
-8 -47 -181 -66 -232 -4 -8 -7 -17 -8 -20 -1 -3 -18 -41 -38 -84 -21 -44 -36
-83 -35 -86 2 -4 41 6 88 22 101 34 95 33 143 43 20 4 37 11 37 16 0 5 3 8 8
7 12 -3 76 14 103 28 15 7 37 15 50 18 50 11 270 94 374 141 138 63 270 130
285 145 3 3 12 6 20 8 8 2 35 17 60 34 25 17 67 44 93 60 70 41 229 161 322
243 89 78 245 234 245 246 0 4 3 9 8 11 6 2 44 48 95 113 37 48 97 137 97 144
0 5 3 11 8 13 20 9 182 346 197 410 2 9 9 26 15 37 6 12 8 21 5 21 -2 0 2 17
10 38 7 20 19 57 26 82 11 44 14 58 25 110 3 14 7 32 9 40 2 8 4 15 5 15 1 0
3 16 5 35 2 19 6 49 9 65 25 124 25 465 2 605 -3 14 -7 43 -10 65 -13 95 -31
174 -63 285 -13 47 -26 92 -28 100 -2 8 -4 16 -5 18 -2 1 -3 5 -4 10 -10 48
-114 289 -174 402 -57 110 -198 333 -213 338 -5 2 -9 8 -9 14 0 29 -246 300
-407 449 -92 84 -331 269 -350 269 -3 0 -20 11 -37 24 -59 44 -228 131 -366
188 -61 25 -71 29 -125 45 -15 4 -138 44 -155 51 -8 3 -24 7 -34 9 -10 2 -53
12 -95 22 -73 18 -106 25 -181 36 -80 12 -117 16 -160 21 -25 2 -74 7 -110 10
-36 4 -175 7 -310 7 -214 0 -290 -3 -400 -18 -14 -2 -54 -6 -90 -10 -36 -4
-67 -8 -71 -10 -3 -2 -28 -7 -55 -10 -27 -4 -101 -17 -164 -30 -63 -14 -127
-26 -142 -29 -14 -2 -36 -9 -47 -16 -12 -6 -21 -9 -21 -6 0 3 -15 0 -32 -5
-18 -6 -44 -12 -57 -15 -13 -3 -48 -13 -78 -24 -29 -10 -53 -16 -53 -14 0 3
-9 0 -21 -6 -11 -6 -29 -13 -39 -15 -10 -2 -96 -34 -192 -70 -95 -37 -188 -72
-205 -78 -18 -7 -33 -15 -33 -19 0 -5 -6 -8 -13 -8 -13 0 -84 -30 -117 -49 -8
-5 -53 -28 -99 -52 -216 -108 -558 -338 -741 -499 -166 -145 -403 -377 -515
-505 -33 -38 -69 -79 -80 -91 -11 -13 -30 -36 -42 -51 -12 -15 -32 -40 -45
-55 -13 -15 -34 -43 -48 -63 -14 -20 -35 -48 -47 -63 -13 -15 -23 -30 -23 -34
0 -4 -6 -13 -13 -20 -24 -25 -210 -316 -252 -396 -11 -20 -32 -57 -46 -82 -54
-93 -169 -328 -224 -460 -44 -105 -48 -115 -50 -120 -1 -3 -5 -13 -8 -22 -10
-25 -18 -52 -19 -58 0 -3 -4 -13 -10 -23 -13 -25 -128 -356 -133 -382 -2 -11
-12 -51 -24 -90 -36 -124 -54 -189 -57 -212 -1 -13 -5 -32 -9 -42 -3 -11 -8
-28 -10 -38 -12 -53 -34 -154 -39 -179 -2 -16 -7 -40 -10 -54 -4 -14 -8 -38
-11 -55 -2 -16 -6 -41 -9 -55 -3 -14 -10 -54 -15 -90 -5 -36 -19 -126 -30
-200 -31 -206 -34 -234 -33 -252 1 -20 3 -20 -79 -22 l-61 -1 7 70 c3 39 8 84
11 100 2 17 6 53 9 80 6 58 13 125 20 175 3 19 8 58 11 85 3 28 7 56 10 64 2
8 7 30 10 50 2 20 7 45 9 57 3 12 7 39 10 60 4 21 13 73 21 114 9 41 17 87 19
103 2 15 7 31 10 36 2 5 7 28 10 51 3 24 17 88 30 144 14 56 26 110 28 121 1
11 6 26 11 33 4 7 5 16 2 19 -3 3 -1 12 5 20 6 7 9 13 6 13 -3 0 -1 15 4 33 6
17 12 39 14 48 2 9 13 49 25 90 12 41 24 81 25 89 2 8 4 15 5 15 1 0 3 8 6 18
13 54 44 160 54 182 5 11 21 58 35 105 40 129 140 408 205 570 83 207 145 352
223 520 17 36 31 68 31 71 1 3 11 25 23 50 289 589 321 650 426 836 26 45 47
87 47 93 0 6 6 13 13 16 8 3 14 10 14 17 0 7 11 30 25 52 14 22 47 83 74 135
27 52 52 96 57 98 4 2 7 9 7 16 0 18 24 66 33 66 4 0 7 5 7 11 0 5 9 30 20 55
11 24 29 63 39 87 65 143 146 389 166 502 2 17 7 41 10 55 3 14 7 36 9 50 2
14 7 41 10 60 28 170 39 512 22 685 -9 93 -14 137 -20 171 -3 18 -8 51 -11 75
-8 61 -52 273 -70 339 -9 30 -18 66 -21 80 -5 27 -76 240 -95 287 -7 15 -13
33 -15 38 -13 53 -170 398 -305 671 -60 121 -109 225 -109 231 0 6 -4 13 -8
15 -4 2 -39 64 -77 138 -38 74 -87 170 -109 212 -77 146 -158 303 -276 533
-65 127 -125 244 -134 260 -9 17 -16 35 -16 42 0 6 -3 13 -8 15 -4 2 -36 59
-71 128 -72 141 -127 247 -240 465 -42 83 -104 202 -136 265 -32 63 -78 151
-103 195 -24 44 -43 81 -43 82 0 4 -50 108 -59 123 -6 8 -34 67 -64 130 -29
63 -90 192 -135 285 -45 94 -82 171 -82 173 1 1 -15 35 -36 75 -20 39 -38 74
-38 77 -1 3 -12 28 -25 55 -13 28 -24 52 -25 55 -1 3 -21 46 -44 95 -24 50
-47 100 -52 113 -5 12 -12 22 -17 22 -5 0 -25 -35 -45 -77z"/>
</g>
</svg>
